<svg width="220" height="220" viewBox="0 0 220 220" fill="none" xmlns="http://www.w3.org/2000/svg">
<path fill-rule="evenodd" clip-rule="evenodd" d="M10 107C10 51.275 53.675 10 110 10C166.325 10 210 51.3 210 107.025C210 162.75 166.325 204.025 110 204.025C99.875 204.025 90.175 202.675 81.05 200.175C79.275 199.7 77.375 199.825 75.7 200.575L55.85 209.325C50.65 211.625 44.8 207.925 44.625 202.25L44.075 184.45C44.025 182.25 43.025 180.2 41.4 178.75C21.95 161.35 10 136.15 10 107ZM79.325 88.775L49.95 135.375C47.125 139.85 52.625 144.875 56.825 141.675L88.375 117.725C90.5 116.1 93.45 116.1 95.6 117.7L118.975 135.225C126 140.475 136 138.65 140.675 131.225L170.075 84.65C172.875 80.175 167.375 75.125 163.175 78.325L131.625 102.275C129.5 103.9 126.55 103.9 124.4 102.3L101.025 84.775C94 79.525 84 81.35 79.325 88.775Z" fill="white"/>
</svg>
