<svg width="220" height="220" viewBox="0 0 220 220" fill="none" xmlns="http://www.w3.org/2000/svg">
<path fill-rule="evenodd" clip-rule="evenodd" d="M209.696 37.9102C215.541 40.1448 219.666 45.6456 219.666 52.0058C219.666 58.5379 215.541 64.0386 209.696 66.2733C212.275 71.774 211.243 78.6499 206.774 83.1192C202.133 87.7604 195.429 88.7918 189.756 86.2134C187.521 92.0579 182.021 96.0115 175.661 96.0115C169.128 96.0115 163.628 92.0579 161.393 86.2134C155.892 88.7918 149.016 87.7604 144.547 83.1192C139.906 78.6499 138.874 71.774 141.453 66.2733C135.608 64.0386 131.655 58.5379 131.655 52.0058C131.655 45.6456 135.608 40.1448 141.453 37.9102C138.874 32.4094 139.906 25.5335 144.547 20.8923C149.016 16.423 155.892 15.3916 161.393 17.9701C163.628 12.1255 169.128 8 175.661 8C182.021 8 187.521 12.1255 189.756 17.9701C195.257 15.3916 202.133 16.423 206.774 20.8923C211.243 25.5335 212.275 32.4094 209.696 37.9102ZM179.786 71.2583V68.336C184.943 67.6484 188.897 63.0072 188.209 57.5065C187.693 53.5528 184.599 50.4587 180.817 49.2554L172.223 46.8488C171.535 46.6769 171.191 46.1612 171.191 45.4737C171.191 44.6142 171.879 43.9266 172.566 43.9266H178.239C178.755 43.9266 179.614 44.0985 179.958 44.4423C180.817 44.7861 181.849 44.6142 182.365 44.0985L185.459 41.0043C186.318 40.1448 186.318 38.5978 185.115 37.9102C183.568 36.7069 181.677 36.1912 179.786 35.8474V32.7532C179.786 31.3781 178.411 30.0029 177.036 30.0029H174.285C172.738 30.0029 171.535 31.3781 171.535 32.7532V35.8474C166.206 36.535 162.253 41.1762 162.94 46.6769C163.456 50.6306 166.55 53.7247 170.332 54.928L178.927 57.3346C179.614 57.5065 179.958 58.0222 179.958 58.7098C179.958 59.5693 179.442 60.2568 178.583 60.2568H172.91C172.223 60.2568 171.707 60.0849 171.191 59.7411C170.332 59.3974 169.3 59.5693 168.785 60.0849L165.69 63.1791C164.831 64.0386 165.003 65.5857 166.034 66.2733C167.581 67.4765 169.472 67.9922 171.535 68.336V71.2583C171.535 72.8054 172.738 74.0086 174.285 74.0086H177.036C178.411 74.0086 179.786 72.8054 179.786 71.2583ZM136.984 35.2855C136.958 35.1676 136.934 35.0496 136.911 34.9314C126.833 30.6971 115.798 28.3527 104.261 28.3527C57.1612 28.3527 19 66.8577 19 113.614C19 160.714 57.1612 198.875 104.261 198.875C151.017 198.875 189.522 160.714 189.522 113.614C189.522 107.726 188.912 101.97 187.751 96.4042C184.572 98.6631 180.703 99.972 176.541 99.972C174.773 99.972 173.062 99.7452 171.436 99.3169C172.472 103.925 173.02 108.701 173.02 113.614C173.02 116.708 172.676 119.802 172.333 122.553L162.363 120.146C160.3 119.458 158.581 118.427 157.206 116.708L151.017 107.426C150.33 106.05 149.642 104.331 149.642 102.612C149.642 101.237 150.33 99.5182 151.017 98.1431L155.565 91.5488C150.741 91.4351 145.939 89.5218 142.315 85.7913C137.411 81.0276 135.647 74.226 136.984 68.0177C131.585 64.4916 128.134 58.4602 128.134 51.5657C128.134 44.7931 131.599 38.7985 136.984 35.2855ZM172.415 67.8959L172.415 70.8182C172.415 70.8947 172.418 70.9704 172.424 71.0451C172.418 70.9704 172.415 70.8947 172.415 70.8182V67.896L172.415 67.8959ZM132.452 151.431L132.452 151.431L132.452 151.431C131.077 152.807 129.702 154.182 128.327 155.213C127.295 156.244 126.608 157.62 126.264 158.995C125.92 161.058 125.576 162.777 124.889 164.839L118.701 180.998C113.887 182.029 109.074 182.373 104.261 182.373V173.09C104.605 168.621 101.511 160.714 96.3539 155.557C94.2911 153.494 93.2597 150.744 93.2597 147.65V136.648C93.2597 132.866 90.8532 129.085 87.4152 127.022C82.6021 124.271 75.3824 120.49 70.5693 118.083C66.7875 116.02 63.0058 113.614 59.9116 110.52H59.5678C57.505 108.801 54.7547 105.363 53.3795 103.3C49.9416 98.4868 44.7846 90.9234 41.3467 85.7664C48.5664 69.9519 60.943 57.5752 76.7576 50.6993L85.0086 54.8249C88.7904 56.5439 93.2597 54.1373 93.2597 50.0117V45.8862C95.6663 45.5424 98.7604 45.1986 101.511 45.1986L111.137 54.8249C113.2 56.8876 113.2 60.6694 111.137 62.7322L109.762 64.1073L105.98 67.8891C104.949 68.9205 104.949 70.6395 105.98 71.6708L107.699 73.3898C108.731 74.4212 108.731 76.1402 107.699 77.1716L104.949 79.9219C104.605 80.2657 103.574 80.6095 102.886 80.6095H99.7918C99.1042 80.6095 98.4167 80.9533 98.0729 81.6409L94.6349 84.735C93.9473 85.4226 93.6035 86.1102 93.6035 86.7978C93.6035 86.9697 93.6895 87.2276 93.7754 87.4854C93.8614 87.7433 93.9473 88.0011 93.9473 88.173L99.448 98.8306C100.136 100.55 99.1042 102.612 97.0415 102.612H94.9787C94.2911 102.612 93.6035 102.612 93.2597 102.269L89.8218 99.1744C89.1342 98.4868 87.4152 98.1431 86.3838 98.1431H84.6649L74.0072 101.925C72.2882 102.269 71.2568 103.988 71.2568 105.707C71.2568 107.426 71.9444 108.801 73.3196 109.488L77.1014 111.207C80.5393 112.926 83.9773 113.614 87.759 113.614C89.6258 113.614 91.6953 116.452 93.7474 119.266C95.4745 121.635 97.1893 123.987 98.7604 124.615H121.451C124.545 124.615 127.295 125.99 129.358 128.053L134.171 132.866C135.89 134.242 137.265 137.679 137.265 140.086C137.265 143.868 134.859 149.025 132.452 151.431Z" fill="white"/>
</svg>
